<?xml version="1.0" standalone="no"?>
<!DOCTYPE svg PUBLIC "-//W3C//DTD SVG 20010904//EN"
 "http://www.w3.org/TR/2001/REC-SVG-20010904/DTD/svg10.dtd">
<svg version="1.0" xmlns="http://www.w3.org/2000/svg"
 width="1024.000000pt" height="1169.000000pt" viewBox="0 0 1024.000000 1169.000000"
 preserveAspectRatio="xMidYMid meet">
<metadata>
Created by potrace 1.13, written by Peter Selinger 2001-2015
</metadata>
<g transform="translate(0.000000,1169.000000) scale(0.100000,-0.100000)"
fill="none" stroke="#000000">
<path d="M4960 10206 c-36 -12 -1093 -604 -2350 -1314 -2541 -1436 -2354
-1321 -2433 -1481 l-42 -84 0 -1976 0 -1976 23 -47 c34 -69 105 -143 165 -172
94 -45 4540 -1659 4607 -1672 86 -18 289 -17 371 0 70 15 4516 1629 4606 1672
60 29 131 103 165 172 l23 47 0 1976 0 1976 -42 84 c-80 161 106 47 -2453
1492 -1384 781 -2317 1301 -2349 1311 -82 24 -211 21 -291 -8z m1352 -1623
c57 -43 104 -86 106 -95 7 -35 -50 -47 -363 -73 -260 -22 -283 -33 -505 -235
-58 -52 -162 -144 -232 -203 -71 -60 -128 -110 -128 -113 0 -2 26 8 58 22 140
65 204 71 268 28 51 -35 63 -52 64 -90 0 -27 -13 -42 -107 -122 -180 -151
-274 -259 -259 -299 10 -24 51 -8 145 54 109 72 169 129 241 228 105 145 300
314 412 357 72 27 105 18 173 -44 95 -87 104 -126 53 -228 -71 -144 -292 -306
-390 -286 -18 4 -49 17 -69 30 l-36 24 -21 -44 c-55 -112 -3 -160 125 -118 86
28 286 130 388 197 107 71 138 75 90 11 -122 -160 -352 -317 -503 -344 -68
-13 -71 -12 -114 13 -54 32 -129 109 -161 165 l-24 43 -47 -41 c-107 -91 -244
-170 -298 -170 -72 0 -130 70 -144 173 -10 70 33 150 143 268 93 98 91 106
-10 37 -111 -76 -335 -307 -426 -440 -17 -27 -36 -48 -40 -48 -4 0 -27 13 -49
30 -54 39 -96 102 -88 132 22 87 394 489 811 876 l110 103 -95 -7 c-52 -4
-108 -13 -125 -22 -92 -46 -347 -281 -607 -558 -270 -289 -389 -436 -453 -564
-15 -30 -29 -56 -30 -58 -2 -2 -17 4 -34 12 -56 29 -151 176 -151 234 0 65
136 230 406 492 163 158 355 337 453 422 30 26 53 49 50 51 -11 9 -556 108
-649 118 -253 27 -377 -16 -481 -167 -76 -111 -103 -276 -56 -345 33 -48 62
-61 132 -56 128 9 292 103 449 259 60 59 103 95 109 89 11 -11 -3 -38 -65
-123 -155 -211 -379 -326 -643 -331 -79 -2 -95 1 -135 23 -225 127 -84 550
235 705 123 59 174 64 775 63 483 0 938 11 1325 31 77 5 179 9 227 10 l87 1
103 -77z m-3102 -1873 l0 -170 -205 0 -205 0 0 -425 0 -425 205 0 205 0 -2
-172 -3 -173 -662 -3 -663 -2 0 175 0 175 205 0 205 0 0 425 0 425 -205 0
-205 0 0 170 0 170 665 0 665 0 0 -170z m1491 147 c65 -25 114 -69 143 -130
36 -73 53 -238 38 -367 -19 -161 -69 -231 -190 -266 l-53 -16 28 -47 c15 -27
66 -114 113 -194 l85 -146 75 -3 75 -3 0 -170 0 -170 -236 -3 -236 -2 -169
289 -169 290 -132 1 -133 0 0 -115 0 -115 85 0 85 0 0 -175 0 -175 -387 2
-388 3 -3 173 -2 172 80 0 80 0 0 425 0 425 -80 0 -80 0 0 170 0 171 663 -3
c603 -3 666 -5 708 -21z m1552 3 c21 -8 59 -31 83 -53 125 -110 160 -286 151
-768 -4 -234 -8 -300 -25 -375 -38 -171 -107 -266 -221 -302 -49 -15 -105 -17
-461 -17 -435 0 -453 2 -528 53 -122 82 -168 240 -179 617 -11 402 29 653 121
763 38 44 105 82 163 92 27 5 230 7 453 6 314 -2 414 -5 443 -16z m1226 -287
c110 -170 225 -346 255 -393 l56 -85 0 223 0 222 -75 0 -75 0 0 170 0 170 355
0 355 0 0 -170 0 -170 -75 0 -75 0 -2 -597 -3 -598 -251 -3 -252 -2 -258 417
c-141 230 -263 427 -271 438 -11 16 -13 -21 -13 -243 l0 -262 80 0 80 0 0
-175 0 -175 -362 2 -363 3 -3 173 -2 172 80 0 80 0 0 425 0 425 -80 0 -80 0 0
170 0 170 349 0 349 0 201 -307z m-4809 -1643 l0 -169 -63 -3 -63 -3 80 -127
c45 -70 85 -126 90 -125 6 2 49 59 97 128 l87 124 -64 3 -64 3 0 169 0 170
380 0 380 0 0 -175 0 -175 -78 0 -77 0 -228 -304 -228 -304 3 -118 3 -119 88
-3 87 -3 0 -169 0 -170 -400 0 -400 0 0 170 0 170 85 0 85 0 0 124 0 123 -217
301 -218 301 -77 0 -78 1 0 175 0 175 395 0 395 0 0 -170z m2015 -430 l202
-595 111 -3 112 -3 0 426 0 425 -80 0 -80 0 0 175 0 175 613 0 c357 0 641 -5
682 -10 132 -20 220 -97 246 -218 16 -74 16 -301 0 -374 -22 -99 -95 -170
-199 -193 -18 -4 -32 -10 -30 -14 2 -4 54 -94 117 -200 l113 -192 152 3 151 3
3 422 2 422 -82 3 -83 3 0 170 0 170 605 0 c648 0 670 -1 776 -51 67 -31 147
-118 184 -196 55 -119 65 -201 65 -518 0 -322 -10 -400 -69 -525 -36 -77 -105
-154 -167 -185 -107 -55 -85 -54 -1010 -58 l-856 -3 -170 288 -169 288 -132 3
-133 3 3 -118 3 -118 83 -3 82 -3 0 -169 0 -170 -735 0 -735 0 0 170 0 170 71
0 c53 0 70 3 66 13 -2 6 -10 36 -18 65 l-13 52 -250 -2 -250 -3 -13 -50 c-19
-77 -21 -75 52 -75 l65 0 0 -170 0 -170 -380 0 -380 0 0 170 0 169 86 3 87 3
198 585 c110 322 201 591 204 598 3 10 79 12 352 10 l347 -3 201 -595z"/>
<path d="M6039 7834 c-86 -66 -239 -213 -239 -231 0 -20 37 -25 75 -8 98 40
288 237 271 280 -9 25 -31 17 -107 -41z"/>
<path d="M3940 6390 l0 -150 209 0 c264 0 254 -5 259 135 4 106 -7 150 -41
159 -12 3 -113 6 -224 6 l-203 0 0 -150z"/>
<path d="M5603 6523 c-48 -10 -48 -12 -48 -413 0 -305 3 -380 14 -393 12 -15
40 -17 212 -17 l199 0 17 27 c15 23 18 61 21 312 4 286 -6 453 -27 474 -12 12
-341 20 -388 10z"/>
<path d="M5567 4754 c-4 -4 -7 -72 -7 -151 l0 -143 213 0 c168 0 217 3 233 14
17 13 19 27 19 130 0 160 16 150 -243 154 -114 2 -211 0 -215 -4z"/>
<path d="M7252 4328 l3 -423 231 1 c255 1 280 6 298 59 5 17 10 170 10 360 1
358 -3 392 -50 414 -16 7 -104 11 -260 11 l-234 0 2 -422z"/>
<path d="M4008 4525 l-55 -175 163 0 c90 0 164 3 163 8 0 4 -24 81 -53 172
l-52 165 -55 3 -55 3 -56 -176z"/>
</g>
</svg>
